<svg version="1.1" id="Layer_1" xmlns="http://www.w3.org/2000/svg" xmlns:xlink="http://www.w3.org/1999/xlink" x="0px" y="0px"
	 width="100%" viewBox="0 0 512 512" enable-background="new 0 0 512 512" xml:space="preserve">
<path fill="#5766CE" opacity="1.000000" stroke="none" 
	d="
M291.000000,513.000000 
	C286.643097,513.000000 282.286194,513.000000 277.589905,512.589722 
	C276.576111,511.793518 275.942810,511.192169 275.221100,511.054626 
	C266.720276,509.434570 258.107056,508.289154 249.715347,506.234772 
	C229.332794,501.244995 209.961548,493.682068 191.592148,483.356598 
	C174.506256,473.752594 158.743332,462.457733 144.595718,448.974060 
	C137.278519,442.000244 130.239899,434.669647 123.683281,426.981812 
	C117.982735,420.297729 112.448860,413.282684 108.065338,405.705780 
	C100.324944,392.326538 92.620750,378.789398 86.583870,364.602448 
	C81.206009,351.964264 77.380104,338.530182 74.185684,325.133453 
	C70.370125,309.131744 68.575371,292.735016 68.949142,276.189270 
	C68.970940,275.224487 68.329369,274.244690 67.996506,273.271881 
	C65.916161,280.259918 64.269119,287.176941 64.153267,294.119507 
	C63.945850,306.549469 64.415413,319.007385 65.052086,331.430573 
	C65.833443,346.677063 69.211205,361.546539 74.562141,375.739624 
	C79.265739,388.215729 85.503967,400.113312 91.065079,412.266083 
	C95.371094,421.676056 92.463913,432.500397 84.314255,436.156464 
	C74.287514,440.654572 65.039787,437.914795 59.354832,427.847778 
	C50.730118,412.574890 44.117191,396.518768 38.804565,379.791138 
	C31.943642,358.188416 28.439430,336.029449 28.274561,313.558228 
	C28.164064,298.497528 30.006186,283.322144 32.163013,268.369476 
	C35.155964,247.620285 41.721798,227.789673 50.652210,208.804718 
	C64.302635,179.785553 82.066048,153.673981 106.770538,132.930099 
	C118.551254,123.038063 131.312012,114.312241 143.647263,105.082802 
	C145.079224,104.011383 146.629196,103.097656 148.576385,101.812546 
	C147.380615,101.392387 147.019958,101.122833 146.800247,101.209724 
	C143.033600,102.699303 139.292053,104.252083 135.530090,105.753716 
	C112.861565,114.802094 93.293266,128.677856 75.530586,145.106308 
	C60.968414,158.574661 49.241489,174.458588 39.238300,191.535141 
	C34.250256,200.050293 21.801174,200.542130 15.735483,197.180435 
	C6.758731,192.205399 4.687458,181.047623 9.038101,173.313919 
	C18.151791,157.113419 29.032492,142.063660 41.976501,128.705521 
	C49.907326,120.520950 58.035522,112.256493 67.230438,105.631416 
	C81.085266,95.648804 95.459373,86.136711 110.541489,78.186508 
	C122.684715,71.785477 136.024948,67.445930 149.152679,63.169830 
	C170.007050,56.376934 191.703613,53.801105 213.530792,53.163857 
	C223.545227,52.871483 233.705292,53.690842 243.630081,55.154041 
	C257.002319,57.125496 270.349243,59.655083 283.456146,62.944633 
	C300.900787,67.322861 317.194427,74.837769 332.965790,83.450081 
	C334.322205,84.190773 335.817261,84.677544 337.247925,85.282272 
	C337.505127,84.850372 337.762329,84.418472 338.019531,83.986572 
	C330.416534,78.540115 323.204163,72.406815 315.118652,67.808838 
	C303.115997,60.983273 290.786896,54.550491 278.069122,49.206085 
	C258.954529,41.173504 238.733032,37.226860 218.014648,35.998760 
	C212.588150,35.677097 207.132019,35.589474 201.745178,34.935566 
	C195.675537,34.198769 191.573029,30.454632 189.459076,24.862228 
	C187.200363,18.886950 187.373901,12.985767 191.712219,7.815628 
	C193.696915,5.450408 195.897385,3.266265 198.000000,1.000003 
	C199.066666,1.000000 200.133347,1.000000 201.897827,1.252898 
	C205.195984,1.990117 207.776947,2.684602 210.399643,2.926416 
	C238.215683,5.491059 264.614044,13.418973 289.125702,26.395243 
	C304.594391,34.584255 319.184998,44.698303 333.268494,55.161575 
	C346.988831,65.355026 358.579437,78.070183 369.255829,91.474152 
	C382.369843,107.938499 393.247803,125.783066 401.547119,145.142975 
	C408.640594,161.689987 414.418915,178.710663 416.914368,196.577881 
	C418.813507,210.175613 419.667023,223.918808 421.037903,237.592041 
	C421.146912,238.679459 421.663116,239.726044 421.990082,240.791611 
	C422.628174,240.771545 423.266235,240.751465 423.904327,240.731400 
	C424.934692,232.821533 426.806030,224.912186 426.810822,217.001724 
	C426.819244,202.918289 426.507782,188.739273 424.870117,174.771408 
	C422.037292,150.610291 414.262329,127.857666 402.403290,106.546906 
	C401.630493,105.158203 401.480804,103.422768 401.350952,102.011612 
	C430.905396,143.680588 444.929352,190.113113 446.193481,240.820053 
	C448.056396,233.585037 449.716827,226.501953 449.845856,219.391068 
	C450.068329,207.135376 450.322021,194.734619 448.750763,182.629944 
	C446.911591,168.461395 444.294586,154.165619 439.873474,140.624207 
	C435.397888,126.915970 428.375244,114.030128 422.329834,100.847565 
	C419.377045,94.408852 420.813873,85.571304 426.195801,81.100632 
	C427.522095,82.553185 428.788849,83.712639 429.521912,85.145172 
	C433.988770,93.874359 438.750153,102.485611 442.639526,111.471123 
	C452.883423,135.137421 459.038910,159.982605 460.771179,185.651794 
	C461.695892,199.354126 460.559998,213.219452 459.965302,226.994431 
	C459.193207,244.878220 454.955658,262.178680 449.317047,279.033722 
	C439.083038,309.625458 423.565247,337.258606 402.113190,361.579376 
	C385.702515,380.184631 367.097870,395.959839 345.820190,408.659241 
	C344.263794,409.588196 343.102264,411.178650 341.757172,412.461548 
	C342.132019,412.928497 342.506866,413.395447 342.881714,413.862396 
	C348.670410,411.533905 354.605133,409.511169 360.224213,406.827515 
	C398.124847,388.726349 428.222168,361.979980 449.750427,325.742432 
	C450.896606,323.813080 453.287903,322.623505 455.048279,321.444946 
	C450.017365,329.439240 445.203003,337.192169 440.026764,344.695465 
	C425.146210,366.265839 406.503235,384.117310 385.195374,399.226135 
	C378.912445,403.681183 372.312622,407.689331 365.858032,411.902283 
	C366.077393,412.339966 366.296722,412.777618 366.516052,413.215302 
	C372.080750,410.929352 377.937408,409.165985 383.151550,406.252655 
	C395.366547,399.427643 407.726471,392.704346 419.198792,384.745056 
	C436.189758,372.957001 450.431152,358.126465 462.380096,341.187561 
	C467.618774,333.761169 472.769073,326.272491 478.014587,319.177002 
	C482.920044,326.762177 484.603760,333.790710 479.696991,342.145477 
	C465.837189,365.744507 448.356903,386.158325 427.618164,403.891144 
	C409.435425,419.438446 389.259583,431.792053 367.231628,441.035370 
	C343.984100,450.790466 319.858154,457.200500 294.623108,459.098877 
	C293.706482,459.167816 292.864716,460.231476 291.559937,460.893311 
	C288.714539,460.636719 286.295502,460.330811 283.880157,459.998138 
	C270.139069,458.105530 256.261444,456.888428 242.690018,454.152802 
	C221.358200,449.852936 201.283218,441.809967 182.304840,431.097168 
	C180.546661,430.104675 178.559891,429.517120 176.679245,428.741577 
	C176.416718,429.187592 176.154205,429.633606 175.891678,430.079620 
	C184.312607,436.041931 192.733536,442.004242 200.742035,447.974792 
	C199.343353,447.860046 198.259293,447.961365 197.385544,447.580383 
	C184.136505,441.803009 170.916412,435.959290 157.685379,430.140625 
	C156.087402,429.437866 154.465195,428.790222 152.854233,428.117004 
	C152.563019,428.618988 152.271805,429.121002 151.980591,429.622986 
	C154.678711,431.938232 157.254791,434.416504 160.094559,436.542542 
	C180.234375,451.620422 202.131699,463.204468 226.365356,470.354156 
	C245.625305,476.036530 265.254761,478.702667 285.273285,479.016510 
	C291.911591,479.120575 296.864502,482.409088 299.516205,488.289886 
	C301.979279,493.752258 302.474518,499.664001 298.627106,504.859619 
	C296.428986,507.828003 293.564453,510.302887 291.000000,513.000000 
M250.257278,103.150566 
	C242.205032,104.262680 234.043442,104.867462 226.119507,106.575012 
	C192.377762,113.846100 163.632156,129.957291 141.128967,156.375473 
	C108.633003,194.524887 96.930054,238.653717 106.633041,287.570038 
	C115.400970,331.772400 140.016922,365.729004 178.718063,389.096252 
	C200.940720,402.513947 225.288803,409.160370 252.013870,410.834106 
	C264.552948,409.632111 277.312225,409.514130 289.588837,407.020172 
	C323.336914,400.164368 351.534912,383.180542 373.685455,356.809601 
	C405.873627,318.488647 417.215668,274.389771 407.391602,225.398499 
	C400.526459,191.162994 383.221069,162.598724 356.513489,139.951584 
	C326.119507,114.178467 290.823547,102.331871 250.257278,103.150566 
z"/>
<path fill="#000000" opacity="1.000000" stroke="none" 
	d="
M425.889618,80.933762 
	C420.813873,85.571304 419.377045,94.408852 422.329834,100.847565 
	C428.375244,114.030128 435.397888,126.915970 439.873474,140.624207 
	C444.294586,154.165619 446.911591,168.461395 448.750763,182.629944 
	C450.322021,194.734619 450.068329,207.135376 449.845856,219.391068 
	C449.716827,226.501953 448.056396,233.585037 446.193481,240.820053 
	C444.929352,190.113113 430.905396,143.680588 401.330627,101.790886 
	C401.000610,101.407166 400.858398,100.987106 400.868225,100.724136 
	C400.595917,100.268547 400.313782,100.075928 400.025787,99.928818 
	C400.019958,99.974335 400.111420,99.981918 400.014465,99.727417 
	C399.621246,99.277824 399.324982,99.082733 398.892090,98.574760 
	C387.296783,81.509468 373.095490,67.174461 357.578918,54.379257 
	C341.328949,40.979275 323.436218,29.888977 303.981598,21.397085 
	C283.212952,12.331622 261.816010,5.768123 239.304443,2.916484 
	C238.468781,2.810627 237.765152,1.662441 237.000000,0.999999 
	C328.946014,1.000000 420.892059,1.000000 513.000000,1.000000 
	C513.000000,157.354187 513.000000,313.708435 512.721497,470.846802 
	C509.754028,467.397949 506.856720,463.126526 501.620239,462.117584 
	C498.265198,461.471161 496.907166,460.061554 495.863831,456.850677 
	C491.152588,442.351349 475.166748,440.964600 466.639099,449.016602 
	C464.863037,452.142242 463.709198,455.323212 461.856720,458.025269 
	C460.693085,459.722565 458.519867,460.757507 456.730408,461.989105 
	C453.860016,463.964661 450.160156,465.268585 448.164337,467.887726 
	C440.120667,478.443665 444.365051,491.504181 457.144653,496.096313 
	C459.043762,496.778778 460.679230,498.792999 461.926056,500.552856 
	C463.811890,503.214722 465.249084,506.194397 467.041809,509.371643 
	C468.137756,510.802887 469.068878,511.901428 470.000000,513.000000 
	C418.979095,513.000000 367.958221,513.000000 316.199066,512.701233 
	C316.079437,511.901428 316.666229,511.353790 317.321411,510.906372 
	C330.040924,502.219604 327.635773,486.728790 317.117218,480.881744 
	C313.599823,478.926483 309.052643,478.561279 304.904633,478.050903 
	C291.253021,476.371185 277.412720,475.787811 263.931824,473.255859 
	C241.434540,469.030457 220.825089,459.520966 201.154465,447.966553 
	C192.733536,442.004242 184.312607,436.041931 175.891678,430.079620 
	C176.154205,429.633606 176.416718,429.187592 176.679245,428.741577 
	C178.559891,429.517120 180.546661,430.104675 182.304840,431.097168 
	C201.283218,441.809967 221.358200,449.852936 242.690018,454.152802 
	C256.261444,456.888428 270.139069,458.105530 283.880157,459.998138 
	C286.295502,460.330811 288.714539,460.636719 292.021362,460.966919 
	C303.104401,460.322144 313.376007,460.239014 323.471710,458.864136 
	C336.220917,457.127869 348.977386,454.947083 361.458221,451.857391 
	C379.089294,447.492767 395.725677,440.310547 411.748352,431.705231 
	C430.213623,421.788025 447.037506,409.590363 462.217255,395.211884 
	C478.301819,379.976440 491.904816,362.715546 503.196503,343.596924 
	C508.330627,334.904053 508.153625,325.781494 502.193329,319.610901 
	C496.906219,314.137238 484.163483,312.750214 477.959503,318.812073 
	C472.769073,326.272491 467.618774,333.761169 462.380096,341.187561 
	C450.431152,358.126465 436.189758,372.957001 419.198792,384.745056 
	C407.726471,392.704346 395.366547,399.427643 383.151550,406.252655 
	C377.937408,409.165985 372.080750,410.929352 366.516052,413.215302 
	C366.296722,412.777618 366.077393,412.339966 365.858032,411.902283 
	C372.312622,407.689331 378.912445,403.681183 385.195374,399.226135 
	C406.503235,384.117310 425.146210,366.265839 440.026764,344.695465 
	C445.203003,337.192169 450.017365,329.439240 455.019836,321.428528 
	C455.042633,321.056763 455.035278,321.121857 455.276245,321.025330 
	C455.629974,320.628601 455.742737,320.328369 456.011658,319.702667 
	C464.625824,304.012390 471.878082,288.064056 475.919067,270.994385 
	C479.595398,255.465042 482.778534,239.734497 484.747253,223.914474 
	C486.099579,213.047821 485.403625,201.857605 484.885284,190.846771 
	C484.399597,180.529419 483.778473,170.089981 481.751343,159.998688 
	C476.482666,133.771133 467.670990,108.742706 454.171661,85.478561 
	C448.016754,74.871521 433.418793,72.385330 425.889618,80.933762 
M466.306274,22.237469 
	C465.919586,22.941545 465.680908,23.803631 465.123627,24.325544 
	C458.671539,30.368267 460.702728,43.796978 467.241028,48.804379 
	C468.652374,49.584938 470.016205,50.471657 471.483185,51.127827 
	C478.107513,54.090855 487.718323,52.537521 491.657013,47.815933 
	C496.864410,41.573555 497.275482,31.956539 494.168854,26.285183 
	C489.126099,17.079132 475.278687,14.699793 466.306274,22.237469 
z"/>
<path fill="#000000" opacity="1.000000" stroke="none" 
	d="
M197.531342,1.000003 
	C195.897385,3.266265 193.696915,5.450408 191.712219,7.815628 
	C187.373901,12.985767 187.200363,18.886950 189.459076,24.862228 
	C191.573029,30.454632 195.675537,34.198769 201.745178,34.935566 
	C207.132019,35.589474 212.588150,35.677097 218.014648,35.998760 
	C238.733032,37.226860 258.954529,41.173504 278.069122,49.206085 
	C290.786896,54.550491 303.115997,60.983273 315.118652,67.808838 
	C323.204163,72.406815 330.416534,78.540115 338.019531,83.986572 
	C337.762329,84.418472 337.505127,84.850372 337.247925,85.282272 
	C335.817261,84.677544 334.322205,84.190773 332.965790,83.450081 
	C317.194427,74.837769 300.900787,67.322861 283.456146,62.944633 
	C270.349243,59.655083 257.002319,57.125496 243.630081,55.154041 
	C233.705292,53.690842 223.545227,52.871483 213.530792,53.163857 
	C191.703613,53.801105 170.007050,56.376934 149.152679,63.169830 
	C136.024948,67.445930 122.684715,71.785477 110.541489,78.186508 
	C95.459373,86.136711 81.085266,95.648804 67.230438,105.631416 
	C58.035522,112.256493 49.907326,120.520950 41.976501,128.705521 
	C29.032492,142.063660 18.151791,157.113419 9.038101,173.313919 
	C4.687458,181.047623 6.758731,192.205399 15.735483,197.180435 
	C21.801174,200.542130 34.250256,200.050293 39.238300,191.535141 
	C49.241489,174.458588 60.968414,158.574661 75.530586,145.106308 
	C93.293266,128.677856 112.861565,114.802094 135.530090,105.753716 
	C139.292053,104.252083 143.033600,102.699303 146.800247,101.209724 
	C147.019958,101.122833 147.380615,101.392387 148.576385,101.812546 
	C146.629196,103.097656 145.079224,104.011383 143.647263,105.082802 
	C131.312012,114.312241 118.551254,123.038063 106.770538,132.930099 
	C82.066048,153.673981 64.302635,179.785553 50.652210,208.804718 
	C41.721798,227.789673 35.155964,247.620285 32.163013,268.369476 
	C30.006186,283.322144 28.164064,298.497528 28.274561,313.558228 
	C28.439430,336.029449 31.943642,358.188416 38.804565,379.791138 
	C44.117191,396.518768 50.730118,412.574890 59.354832,427.847778 
	C65.039787,437.914795 74.287514,440.654572 84.314255,436.156464 
	C92.463913,432.500397 95.371094,421.676056 91.065079,412.266083 
	C85.503967,400.113312 79.265739,388.215729 74.562141,375.739624 
	C69.211205,361.546539 65.833443,346.677063 65.052086,331.430573 
	C64.415413,319.007385 63.945850,306.549469 64.153267,294.119507 
	C64.269119,287.176941 65.916161,280.259918 67.996506,273.271881 
	C68.329369,274.244690 68.970940,275.224487 68.949142,276.189270 
	C68.575371,292.735016 70.370125,309.131744 74.185684,325.133453 
	C77.380104,338.530182 81.206009,351.964264 86.583870,364.602448 
	C92.620750,378.789398 100.324944,392.326538 108.065338,405.705780 
	C112.448860,413.282684 117.982735,420.297729 123.683281,426.981812 
	C130.239899,434.669647 137.278519,442.000244 144.595718,448.974060 
	C158.743332,462.457733 174.506256,473.752594 191.592148,483.356598 
	C209.961548,493.682068 229.332794,501.244995 249.715347,506.234772 
	C258.107056,508.289154 266.720276,509.434570 275.221100,511.054626 
	C275.942810,511.192169 276.576111,511.793518 277.125244,512.589722 
	C185.053970,513.000000 93.107941,513.000000 1.000000,513.000000 
	C1.000000,356.645813 1.000000,200.291565 1.275881,43.149223 
	C3.860631,44.894890 5.767582,48.930370 8.554922,49.676369 
	C16.418131,51.780865 18.568123,58.211205 21.715366,64.113152 
	C21.783960,64.241791 21.977831,64.303619 22.319693,64.711105 
	C23.343513,65.527397 24.224230,65.949738 24.968704,66.543037 
	C34.600441,74.218979 50.040169,67.774269 52.210281,56.554218 
	C52.552292,54.785965 55.380737,53.419888 57.184719,52.030376 
	C60.425240,49.534382 64.720032,47.809242 66.875954,44.615532 
	C73.249817,35.173470 69.646912,22.205194 56.924294,17.894392 
	C55.015556,17.247654 52.740948,15.291553 52.197384,13.474063 
	C50.826305,8.889691 48.718674,5.264785 44.373138,3.039212 
	C43.734749,2.712260 43.448944,1.696862 43.000000,1.000000 
	C94.354225,1.000000 145.708450,1.000000 197.531342,1.000003 
M24.262335,492.768890 
	C27.836126,496.107574 32.225658,496.155304 36.741547,496.031586 
	C42.840702,495.864563 50.028419,490.878693 51.838223,485.325592 
	C54.294369,477.789307 51.783455,468.859924 46.208908,465.006012 
	C39.492073,460.362427 31.346169,458.943420 22.279257,466.135193 
	C21.597063,467.236633 20.944006,468.357422 20.227837,469.436279 
	C16.396843,475.207397 16.741343,488.361969 24.262335,492.768890 
z"/>
<path fill="#4C54C7" opacity="1.000000" stroke="none" 
	d="
M400.858398,100.987106 
	C400.858398,100.987106 401.000610,101.407166 401.020935,101.627884 
	C401.480804,103.422768 401.630493,105.158203 402.403290,106.546906 
	C414.262329,127.857666 422.037292,150.610291 424.870117,174.771408 
	C426.507782,188.739273 426.819244,202.918289 426.810822,217.001724 
	C426.806030,224.912186 424.934692,232.821533 423.904327,240.731400 
	C423.266235,240.751465 422.628174,240.771545 421.990082,240.791611 
	C421.663116,239.726044 421.146912,238.679459 421.037903,237.592041 
	C419.667023,223.918808 418.813507,210.175613 416.914368,196.577881 
	C414.418915,178.710663 408.640594,161.689987 401.547119,145.142975 
	C393.247803,125.783066 382.369843,107.938499 369.255829,91.474152 
	C358.579437,78.070183 346.988831,65.355026 333.268494,55.161575 
	C319.184998,44.698303 304.594391,34.584255 289.125702,26.395243 
	C264.614044,13.418973 238.215683,5.491059 210.399643,2.926416 
	C207.776947,2.684602 205.195984,1.990117 202.297821,1.252898 
	C213.354233,1.000000 224.708450,1.000000 236.531342,0.999999 
	C237.765152,1.662441 238.468781,2.810627 239.304443,2.916484 
	C261.816010,5.768123 283.212952,12.331622 303.981598,21.397085 
	C323.436218,29.888977 341.328949,40.979275 357.578918,54.379257 
	C373.095490,67.174461 387.296783,81.509468 399.025391,98.799759 
	C399.567383,99.552399 399.839386,99.767166 400.111420,99.981918 
	C400.111420,99.981918 400.019958,99.974335 400.119659,100.144272 
	C400.369781,100.597946 400.582794,100.822250 400.858398,100.987106 
z"/>
<path fill="#4C55C7" opacity="1.000000" stroke="none" 
	d="
M200.742035,447.974792 
	C220.825089,459.520966 241.434540,469.030457 263.931824,473.255859 
	C277.412720,475.787811 291.253021,476.371185 304.904633,478.050903 
	C309.052643,478.561279 313.599823,478.926483 317.117218,480.881744 
	C327.635773,486.728790 330.040924,502.219604 317.321411,510.906372 
	C316.666229,511.353790 316.079437,511.901428 315.730408,512.701233 
	C307.979095,513.000000 299.958191,513.000000 291.468628,513.000000 
	C293.564453,510.302887 296.428986,507.828003 298.627106,504.859619 
	C302.474518,499.664001 301.979279,493.752258 299.516205,488.289886 
	C296.864502,482.409088 291.911591,479.120575 285.273285,479.016510 
	C265.254761,478.702667 245.625305,476.036530 226.365356,470.354156 
	C202.131699,463.204468 180.234375,451.620422 160.094559,436.542542 
	C157.254791,434.416504 154.678711,431.938232 151.980591,429.622986 
	C152.271805,429.121002 152.563019,428.618988 152.854233,428.117004 
	C154.465195,428.790222 156.087402,429.437866 157.685379,430.140625 
	C170.916412,435.959290 184.136505,441.803009 197.385544,447.580383 
	C198.259293,447.961365 199.343353,447.860046 200.742035,447.974792 
z"/>
<path fill="#FFE148" opacity="1.000000" stroke="none" 
	d="
M42.533138,1.000000 
	C43.448944,1.696862 43.734749,2.712260 44.373138,3.039212 
	C48.718674,5.264785 50.826305,8.889691 52.197384,13.474063 
	C52.740948,15.291553 55.015556,17.247654 56.924294,17.894392 
	C69.646912,22.205194 73.249817,35.173470 66.875954,44.615532 
	C64.720032,47.809242 60.425240,49.534382 57.184719,52.030376 
	C55.380737,53.419888 52.552292,54.785965 52.210281,56.554218 
	C50.040169,67.774269 34.600441,74.218979 24.968704,66.543037 
	C24.224230,65.949738 23.343513,65.527397 22.694580,64.553116 
	C24.476622,61.834816 26.903278,59.787979 27.513054,57.296474 
	C28.425650,53.567669 30.601913,52.211475 33.818180,51.149700 
	C40.661861,48.890419 44.845490,43.373863 45.018654,36.851048 
	C45.260551,27.739138 42.190937,22.278812 34.698032,19.469719 
	C31.057663,18.104946 28.314644,16.646383 27.367945,12.310242 
	C26.856127,9.965977 24.458269,8.033484 23.051743,5.589650 
	C24.461481,3.842714 25.730740,2.421357 27.000000,1.000000 
	C32.022091,1.000000 37.044186,1.000000 42.533138,1.000000 
z"/>
<path fill="#FFE148" opacity="1.000000" stroke="none" 
	d="
M470.467590,513.000000 
	C469.068878,511.901428 468.137756,510.802887 467.236450,509.080322 
	C468.141418,507.052917 469.399475,505.755554 469.822632,504.227051 
	C471.321198,498.814545 474.658051,495.817810 479.970032,493.780121 
	C485.781219,491.550812 488.634430,486.401367 489.005371,480.072723 
	C489.410706,473.156738 487.078644,467.041687 480.707642,464.459747 
	C474.582336,461.977325 471.189117,458.013489 469.062775,452.229309 
	C468.616852,451.016296 467.677704,449.984619 466.965851,448.869385 
	C475.166748,440.964600 491.152588,442.351349 495.863831,456.850677 
	C496.907166,460.061554 498.265198,461.471161 501.620239,462.117584 
	C506.856720,463.126526 509.754028,467.397949 512.721497,471.315460 
	C513.000000,476.022095 513.000000,481.044189 512.733704,486.220093 
	C508.738739,490.858612 505.282501,495.616669 498.677826,496.263245 
	C497.696899,496.359314 496.347321,498.251526 496.117523,499.489075 
	C495.150452,504.696655 492.019531,508.181000 487.905640,511.093628 
	C487.404877,511.448181 487.292419,512.351196 487.000000,513.000000 
	C481.645081,513.000000 476.290131,513.000000 470.467590,513.000000 
z"/>
<path fill="#FFF36C" opacity="1.000000" stroke="none" 
	d="
M22.911263,5.915229 
	C24.458269,8.033484 26.856127,9.965977 27.367945,12.310242 
	C28.314644,16.646383 31.057663,18.104946 34.698032,19.469719 
	C42.190937,22.278812 45.260551,27.739138 45.018654,36.851048 
	C44.845490,43.373863 40.661861,48.890419 33.818180,51.149700 
	C30.601913,52.211475 28.425650,53.567669 27.513054,57.296474 
	C26.903278,59.787979 24.476622,61.834816 22.488148,64.238632 
	C21.977831,64.303619 21.783960,64.241791 21.715366,64.113152 
	C18.568123,58.211205 16.418131,51.780865 8.554922,49.676369 
	C5.767582,48.930370 3.860631,44.894890 1.275881,42.680565 
	C1.000000,37.977909 1.000000,32.955814 1.263418,27.783928 
	C4.938575,23.506912 8.152951,19.182611 13.896732,17.979237 
	C20.380318,16.620865 17.423775,8.091247 22.911263,5.915229 
z"/>
<path fill="#000000" opacity="1.000000" stroke="none" 
	d="
M487.468628,513.000000 
	C487.292419,512.351196 487.404877,511.448181 487.905640,511.093628 
	C492.019531,508.181000 495.150452,504.696655 496.117523,499.489075 
	C496.347321,498.251526 497.696899,496.359314 498.677826,496.263245 
	C505.282501,495.616669 508.738739,490.858612 512.733704,486.686951 
	C513.000000,495.593079 513.000000,504.186157 513.000000,513.000000 
	C504.647064,513.000000 496.292206,513.000000 487.468628,513.000000 
z"/>
<path fill="#000000" opacity="1.000000" stroke="none" 
	d="
M23.051743,5.589650 
	C17.423775,8.091247 20.380318,16.620865 13.896732,17.979237 
	C8.152951,19.182611 4.938575,23.506912 1.263418,27.317066 
	C1.000000,18.406929 1.000000,9.813859 1.000000,1.000000 
	C9.352930,1.000000 17.707798,1.000000 26.531334,1.000000 
	C25.730740,2.421357 24.461481,3.842714 23.051743,5.589650 
z"/>
<path fill="#2B3894" opacity="1.000000" stroke="none" 
	d="
M251.106934,410.712341 
	C225.288803,409.160370 200.940720,402.513947 178.718063,389.096252 
	C140.016922,365.729004 115.400970,331.772400 106.633041,287.570038 
	C96.930054,238.653717 108.633003,194.524887 141.128967,156.375473 
	C163.632156,129.957291 192.377762,113.846100 226.119507,106.575012 
	C234.043442,104.867462 242.205032,104.262680 250.799683,103.547592 
	C251.889099,104.269539 252.409607,104.818695 252.986938,104.886955 
	C272.716736,107.219719 291.138062,113.367958 308.453094,123.155342 
	C339.573486,140.746292 361.906189,166.054993 375.438904,199.043884 
	C388.062866,229.817368 390.457458,261.598907 382.421234,293.801605 
	C374.385834,326.000885 357.652740,353.072113 332.045593,374.516113 
	C310.903534,392.220978 286.882874,403.533264 259.679291,408.144958 
	C256.760681,408.639771 253.961517,409.839569 251.106934,410.712341 
M237.533051,284.630096 
	C246.898590,289.192047 256.034607,287.671814 264.662537,282.915039 
	C277.109100,276.053009 285.365021,265.891724 286.977661,251.318024 
	C287.938232,242.637009 285.682129,234.923767 277.828888,230.181931 
	C269.707489,225.278168 261.161530,225.606628 252.021378,229.908295 
	C239.335510,235.805283 230.900635,245.351807 227.536697,259.015442 
	C224.883392,269.792603 228.575256,279.087189 237.533051,284.630096 
M357.477783,305.909729 
	C349.099365,322.566528 337.443970,336.444977 322.379791,347.465729 
	C317.699249,350.889984 316.435059,355.783875 319.076355,359.483612 
	C321.782959,363.274841 326.276520,363.953613 330.506897,360.825775 
	C362.274323,337.337616 380.465668,305.917572 383.807587,266.563019 
	C386.218628,238.170166 379.387726,211.609909 363.630402,187.766220 
	C358.624908,180.192017 352.242859,173.485489 346.144989,166.692245 
	C342.904205,163.081894 338.614136,163.173386 335.477417,166.062088 
	C332.420654,168.877167 332.176514,173.009933 334.957489,176.856628 
	C335.926605,178.197067 337.094482,179.404541 338.246796,180.600220 
	C358.391571,201.503433 368.029022,226.839462 368.798004,255.494659 
	C369.263214,272.831390 365.217621,289.481476 357.477783,305.909729 
M312.876740,331.414368 
	C325.368530,322.007690 334.865753,310.154633 341.447235,296.008514 
	C347.138306,283.776306 350.156647,270.892059 349.967499,257.353912 
	C349.902039,252.668076 346.544647,249.274918 342.249237,249.156235 
	C338.588409,249.055069 335.343262,252.287247 334.926208,256.506012 
	C334.517426,260.641144 334.401337,264.821014 333.734161,268.912292 
	C327.362213,307.986755 292.076416,337.845367 251.121124,334.087341 
	C247.485672,333.753754 243.861649,333.196411 240.220123,333.053162 
	C235.657379,332.873657 232.936523,335.483398 232.329559,339.787994 
	C231.737839,343.984497 233.972000,347.031006 238.023010,347.928986 
	C242.705399,348.966949 247.519455,349.709595 252.306091,349.927582 
	C274.387543,350.933105 294.397125,344.836853 312.876740,331.414368 
M163.486206,196.019440 
	C173.020004,181.660538 185.155334,170.035904 199.849594,161.003754 
	C205.149475,157.746033 206.320587,153.438080 203.599304,149.323486 
	C200.912399,145.260834 196.275711,144.459778 191.399216,148.194244 
	C182.185974,155.249832 172.478622,161.956238 164.496964,170.267761 
	C141.762405,193.941895 130.486755,222.661530 129.994431,255.524857 
	C129.907776,261.307892 132.873795,264.787964 137.514160,264.782532 
	C142.131546,264.777130 144.813614,261.368561 145.086517,255.514206 
	C146.072617,234.360123 151.452698,214.536682 163.486206,196.019440 
M156.213257,334.151123 
	C160.509460,338.999512 164.479279,344.190887 169.155014,348.640411 
	C198.776093,376.828369 234.128922,387.768646 274.507416,382.850525 
	C276.676483,382.586304 279.345490,380.970825 280.536499,379.163696 
	C283.995514,373.915314 280.266296,367.997131 273.728638,367.929016 
	C263.118866,367.818420 252.374054,368.871582 241.923157,367.554199 
	C212.517532,363.847443 188.663284,349.651306 169.819489,326.847900 
	C167.370560,323.884369 164.173233,321.882568 160.179611,323.965698 
	C156.382812,325.946136 154.535507,329.038025 156.213257,334.151123 
M304.089417,195.398529 
	C305.632629,196.662842 307.221283,197.876038 308.711609,199.199936 
	C317.059082,206.615311 323.285492,215.537506 328.000854,225.651962 
	C330.179565,230.325333 334.612793,231.810135 338.282135,229.842987 
	C342.459534,227.603470 343.928833,223.278381 341.872131,218.807327 
	C324.862885,181.830292 288.486389,161.517578 249.465103,164.107590 
	C243.415405,164.509155 240.559357,167.623917 240.933228,172.876343 
	C241.264343,177.527939 244.836899,180.085617 250.585144,179.941132 
	C254.537308,179.841766 258.495972,179.821320 262.447815,179.920486 
	C277.824005,180.306290 291.230194,186.124924 304.089417,195.398529 
M178.501205,207.026154 
	C175.158752,214.072128 171.486786,220.985855 168.587570,228.209717 
	C166.593979,233.177063 168.830627,237.157776 173.331192,238.634583 
	C177.458084,239.988770 181.301849,237.972321 183.058121,233.196167 
	C187.358292,221.501877 193.219284,210.842880 202.273895,202.053986 
	C205.802719,198.628723 205.865280,193.792755 203.024597,190.855606 
	C199.610672,187.325760 194.972946,187.288696 191.195374,191.412384 
	C186.831696,196.175842 182.949905,201.380737 178.501205,207.026154 
M251.570602,129.990601 
	C247.605484,130.329727 243.626389,130.554382 239.678818,131.037094 
	C234.801346,131.633499 231.811813,135.040421 232.138397,139.331985 
	C232.437317,143.259964 235.863846,146.063004 240.535934,146.076035 
	C251.474075,146.106552 262.412384,146.101868 273.350586,146.081375 
	C278.074921,146.072525 281.466461,143.384262 281.841583,139.442596 
	C282.249390,135.157684 279.274353,131.474304 274.428986,131.080048 
	C267.154907,130.488144 259.845978,130.324890 251.570602,129.990601 
M179.594208,308.842957 
	C183.422928,313.430267 187.059830,318.197052 191.135941,322.552856 
	C194.975220,326.655609 199.533752,326.680878 202.978531,323.194519 
	C205.850937,320.287445 205.313522,315.855621 202.430481,311.907379 
	C196.785431,304.176636 191.361450,296.274689 186.111053,288.269745 
	C183.495026,284.281250 179.723892,282.326996 176.172150,283.946228 
	C171.400436,286.121735 169.764679,290.194366 172.105865,295.064819 
	C174.263763,299.553986 176.817337,303.852936 179.594208,308.842957 
z"/>
<path fill="#4C54C7" opacity="1.000000" stroke="none" 
	d="
M426.195801,81.100632 
	C433.418793,72.385330 448.016754,74.871521 454.171661,85.478561 
	C467.670990,108.742706 476.482666,133.771133 481.751343,159.998688 
	C483.778473,170.089981 484.399597,180.529419 484.885284,190.846771 
	C485.403625,201.857605 486.099579,213.047821 484.747253,223.914474 
	C482.778534,239.734497 479.595398,255.465042 475.919067,270.994385 
	C471.878082,288.064056 464.625824,304.012390 455.830383,319.847626 
	C455.285248,320.554596 455.132690,320.822510 455.035278,321.121857 
	C455.035278,321.121857 455.042633,321.056763 455.071106,321.073181 
	C453.287903,322.623505 450.896606,323.813080 449.750427,325.742432 
	C428.222168,361.979980 398.124847,388.726349 360.224213,406.827515 
	C354.605133,409.511169 348.670410,411.533905 342.881714,413.862396 
	C342.506866,413.395447 342.132019,412.928497 341.757172,412.461548 
	C343.102264,411.178650 344.263794,409.588196 345.820190,408.659241 
	C367.097870,395.959839 385.702515,380.184631 402.113190,361.579376 
	C423.565247,337.258606 439.083038,309.625458 449.317047,279.033722 
	C454.955658,262.178680 459.193207,244.878220 459.965302,226.994431 
	C460.559998,213.219452 461.695892,199.354126 460.771179,185.651794 
	C459.038910,159.982605 452.883423,135.137421 442.639526,111.471123 
	C438.750153,102.485611 433.988770,93.874359 429.521912,85.145172 
	C428.788849,83.712639 427.522095,82.553185 426.195801,81.100632 
z"/>
<path fill="#232E7B" opacity="1.000000" stroke="none" 
	d="
M251.560394,410.773254 
	C253.961517,409.839569 256.760681,408.639771 259.679291,408.144958 
	C286.882874,403.533264 310.903534,392.220978 332.045593,374.516113 
	C357.652740,353.072113 374.385834,326.000885 382.421234,293.801605 
	C390.457458,261.598907 388.062866,229.817368 375.438904,199.043884 
	C361.906189,166.054993 339.573486,140.746292 308.453094,123.155342 
	C291.138062,113.367958 272.716736,107.219719 252.986938,104.886955 
	C252.409607,104.818695 251.889099,104.269539 251.223663,103.610535 
	C290.823547,102.331871 326.119507,114.178467 356.513489,139.951584 
	C383.221069,162.598724 400.526459,191.162994 407.391602,225.398499 
	C417.215668,274.389771 405.873627,318.488647 373.685455,356.809601 
	C351.534912,383.180542 323.336914,400.164368 289.588837,407.020172 
	C277.312225,409.514130 264.552948,409.632111 251.560394,410.773254 
z"/>
<path fill="#4C55C7" opacity="1.000000" stroke="none" 
	d="
M478.014587,319.177002 
	C484.163483,312.750214 496.906219,314.137238 502.193329,319.610901 
	C508.153625,325.781494 508.330627,334.904053 503.196503,343.596924 
	C491.904816,362.715546 478.301819,379.976440 462.217255,395.211884 
	C447.037506,409.590363 430.213623,421.788025 411.748352,431.705231 
	C395.725677,440.310547 379.089294,447.492767 361.458221,451.857391 
	C348.977386,454.947083 336.220917,457.127869 323.471710,458.864136 
	C313.376007,460.239014 303.104401,460.322144 292.449463,460.905243 
	C292.864716,460.231476 293.706482,459.167816 294.623108,459.098877 
	C319.858154,457.200500 343.984100,450.790466 367.231628,441.035370 
	C389.259583,431.792053 409.435425,419.438446 427.618164,403.891144 
	C448.356903,386.158325 465.837189,365.744507 479.696991,342.145477 
	C484.603760,333.790710 482.920044,326.762177 478.014587,319.177002 
z"/>
<path fill="#FFF36C" opacity="1.000000" stroke="none" 
	d="
M466.639099,449.016602 
	C467.677704,449.984619 468.616852,451.016296 469.062775,452.229309 
	C471.189117,458.013489 474.582336,461.977325 480.707642,464.459747 
	C487.078644,467.041687 489.410706,473.156738 489.005371,480.072723 
	C488.634430,486.401367 485.781219,491.550812 479.970032,493.780121 
	C474.658051,495.817810 471.321198,498.814545 469.822632,504.227051 
	C469.399475,505.755554 468.141418,507.052917 467.071625,508.747650 
	C465.249084,506.194397 463.811890,503.214722 461.926056,500.552856 
	C460.679230,498.792999 459.043762,496.778778 457.144653,496.096313 
	C444.365051,491.504181 440.120667,478.443665 448.164337,467.887726 
	C450.160156,465.268585 453.860016,463.964661 456.730408,461.989105 
	C458.519867,460.757507 460.693085,459.722565 461.856720,458.025269 
	C463.709198,455.323212 464.863037,452.142242 466.639099,449.016602 
z"/>
<path fill="#60B3FB" opacity="1.000000" stroke="none" 
	d="
M467.009918,22.156784 
	C475.278687,14.699793 489.126099,17.079132 494.168854,26.285183 
	C497.275482,31.956539 496.864410,41.573555 491.657013,47.815933 
	C487.718323,52.537521 478.107513,54.090855 471.483185,51.127827 
	C470.016205,50.471657 468.652374,49.584938 467.260223,48.158936 
	C470.501556,43.122875 473.169861,38.323494 471.837982,32.794453 
	C470.942413,29.076630 468.667664,25.691019 467.009918,22.156784 
z"/>
<path fill="#72D0FB" opacity="1.000000" stroke="none" 
	d="
M466.658081,22.197124 
	C468.667664,25.691019 470.942413,29.076630 471.837982,32.794453 
	C473.169861,38.323494 470.501556,43.122875 467.120331,47.829933 
	C460.702728,43.796978 458.671539,30.368267 465.123627,24.325544 
	C465.680908,23.803631 465.919586,22.941545 466.658081,22.197124 
z"/>
<path fill="#5766CE" opacity="1.000000" stroke="none" 
	d="
M455.276245,321.025330 
	C455.132690,320.822510 455.285248,320.554596 455.674225,320.173126 
	C455.742737,320.328369 455.629974,320.628601 455.276245,321.025330 
z"/>
<path fill="#5766CE" opacity="1.000000" stroke="none" 
	d="
M400.868225,100.724136 
	C400.582794,100.822250 400.369781,100.597946 400.125488,100.098755 
	C400.313782,100.075928 400.595917,100.268547 400.868225,100.724136 
z"/>
<path fill="#5766CE" opacity="1.000000" stroke="none" 
	d="
M400.014465,99.727425 
	C399.839386,99.767166 399.567383,99.552399 399.162048,99.112640 
	C399.324982,99.082733 399.621246,99.277824 400.014465,99.727425 
z"/>
<path fill="#4C55C7" opacity="1.000000" stroke="none" 
	d="
M22.932495,465.816681 
	C31.346169,458.943420 39.492073,460.362427 46.208908,465.006012 
	C51.783455,468.859924 54.294369,477.789307 51.838223,485.325592 
	C50.028419,490.878693 42.840702,495.864563 36.741547,496.031586 
	C32.225658,496.155304 27.836126,496.107574 24.170858,492.078766 
	C29.385292,482.609528 30.173319,474.033081 22.932495,465.816681 
z"/>
<path fill="#5766CE" opacity="1.000000" stroke="none" 
	d="
M22.605877,465.975952 
	C30.173319,474.033081 29.385292,482.609528 24.019943,491.753204 
	C16.741343,488.361969 16.396843,475.207397 20.227837,469.436279 
	C20.944006,468.357422 21.597063,467.236633 22.605877,465.975952 
z"/>
<path fill="#5665CD" opacity="1.000000" stroke="none" 
	d="
M357.649353,305.574585 
	C365.217621,289.481476 369.263214,272.831390 368.798004,255.494659 
	C368.029022,226.839462 358.391571,201.503433 338.246796,180.600220 
	C337.094482,179.404541 335.926605,178.197067 334.957489,176.856628 
	C332.176514,173.009933 332.420654,168.877167 335.477417,166.062088 
	C338.614136,163.173386 342.904205,163.081894 346.144989,166.692245 
	C352.242859,173.485489 358.624908,180.192017 363.630402,187.766220 
	C379.387726,211.609909 386.218628,238.170166 383.807587,266.563019 
	C380.465668,305.917572 362.274323,337.337616 330.506897,360.825775 
	C326.276520,363.953613 321.782959,363.274841 319.076355,359.483612 
	C316.435059,355.783875 317.699249,350.889984 322.379791,347.465729 
	C337.443970,336.444977 349.099365,322.566528 357.649353,305.574585 
z"/>
<path fill="#5665CD" opacity="1.000000" stroke="none" 
	d="
M312.580048,331.619263 
	C294.397125,344.836853 274.387543,350.933105 252.306091,349.927582 
	C247.519455,349.709595 242.705399,348.966949 238.023010,347.928986 
	C233.972000,347.031006 231.737839,343.984497 232.329559,339.787994 
	C232.936523,335.483398 235.657379,332.873657 240.220123,333.053162 
	C243.861649,333.196411 247.485672,333.753754 251.121124,334.087341 
	C292.076416,337.845367 327.362213,307.986755 333.734161,268.912292 
	C334.401337,264.821014 334.517426,260.641144 334.926208,256.506012 
	C335.343262,252.287247 338.588409,249.055069 342.249237,249.156235 
	C346.544647,249.274918 349.902039,252.668076 349.967499,257.353912 
	C350.156647,270.892059 347.138306,283.776306 341.447235,296.008514 
	C334.865753,310.154633 325.368530,322.007690 312.580048,331.619263 
z"/>
<path fill="#5665CD" opacity="1.000000" stroke="none" 
	d="
M163.309113,196.336182 
	C151.452698,214.536682 146.072617,234.360123 145.086517,255.514206 
	C144.813614,261.368561 142.131546,264.777130 137.514160,264.782532 
	C132.873795,264.787964 129.907776,261.307892 129.994431,255.524857 
	C130.486755,222.661530 141.762405,193.941895 164.496964,170.267761 
	C172.478622,161.956238 182.185974,155.249832 191.399216,148.194244 
	C196.275711,144.459778 200.912399,145.260834 203.599304,149.323486 
	C206.320587,153.438080 205.149475,157.746033 199.849594,161.003754 
	C185.155334,170.035904 173.020004,181.660538 163.309113,196.336182 
z"/>
<path fill="#5665CD" opacity="1.000000" stroke="none" 
	d="
M156.100739,333.805359 
	C154.535507,329.038025 156.382812,325.946136 160.179611,323.965698 
	C164.173233,321.882568 167.370560,323.884369 169.819489,326.847900 
	C188.663284,349.651306 212.517532,363.847443 241.923157,367.554199 
	C252.374054,368.871582 263.118866,367.818420 273.728638,367.929016 
	C280.266296,367.997131 283.995514,373.915314 280.536499,379.163696 
	C279.345490,380.970825 276.676483,382.586304 274.507416,382.850525 
	C234.128922,387.768646 198.776093,376.828369 169.155014,348.640411 
	C164.479279,344.190887 160.509460,338.999512 156.100739,333.805359 
z"/>
<path fill="#5665CD" opacity="1.000000" stroke="none" 
	d="
M303.806458,195.178619 
	C291.230194,186.124924 277.824005,180.306290 262.447815,179.920486 
	C258.495972,179.821320 254.537308,179.841766 250.585144,179.941132 
	C244.836899,180.085617 241.264343,177.527939 240.933228,172.876343 
	C240.559357,167.623917 243.415405,164.509155 249.465103,164.107590 
	C288.486389,161.517578 324.862885,181.830292 341.872131,218.807327 
	C343.928833,223.278381 342.459534,227.603470 338.282135,229.842987 
	C334.612793,231.810135 330.179565,230.325333 328.000854,225.651962 
	C323.285492,215.537506 317.059082,206.615311 308.711609,199.199936 
	C307.221283,197.876038 305.632629,196.662842 303.806458,195.178619 
z"/>
<path fill="#FDDF48" opacity="1.000000" stroke="none" 
	d="
M252.724396,229.791183 
	C261.161530,225.606628 269.707489,225.278168 277.828888,230.181931 
	C285.682129,234.923767 287.938232,242.637009 286.977661,251.318024 
	C285.365021,265.891724 277.109100,276.053009 264.662537,282.915039 
	C256.034607,287.671814 246.898590,289.192047 237.677277,284.314453 
	C253.590820,279.009155 266.141693,258.555023 262.758667,242.562851 
	C261.580231,236.992249 258.622711,232.037582 252.724396,229.791183 
z"/>
<path fill="#FEF26C" opacity="1.000000" stroke="none" 
	d="
M252.372894,229.849731 
	C258.622711,232.037582 261.580231,236.992249 262.758667,242.562851 
	C266.141693,258.555023 253.590820,279.009155 237.461182,284.026825 
	C228.575256,279.087189 224.883392,269.792603 227.536697,259.015442 
	C230.900635,245.351807 239.335510,235.805283 252.372894,229.849731 
z"/>
<path fill="#5665CD" opacity="1.000000" stroke="none" 
	d="
M178.680054,206.710052 
	C182.949905,201.380737 186.831696,196.175842 191.195374,191.412384 
	C194.972946,187.288696 199.610672,187.325760 203.024597,190.855606 
	C205.865280,193.792755 205.802719,198.628723 202.273895,202.053986 
	C193.219284,210.842880 187.358292,221.501877 183.058121,233.196167 
	C181.301849,237.972321 177.458084,239.988770 173.331192,238.634583 
	C168.830627,237.157776 166.593979,233.177063 168.587570,228.209717 
	C171.486786,220.985855 175.158752,214.072128 178.680054,206.710052 
z"/>
<path fill="#5665CD" opacity="1.000000" stroke="none" 
	d="
M252.061218,129.984985 
	C259.845978,130.324890 267.154907,130.488144 274.428986,131.080048 
	C279.274353,131.474304 282.249390,135.157684 281.841583,139.442596 
	C281.466461,143.384262 278.074921,146.072525 273.350586,146.081375 
	C262.412384,146.101868 251.474075,146.106552 240.535934,146.076035 
	C235.863846,146.063004 232.437317,143.259964 232.138397,139.331985 
	C231.811813,135.040421 234.801346,131.633499 239.678818,131.037094 
	C243.626389,130.554382 247.605484,130.329727 252.061218,129.984985 
z"/>
<path fill="#5665CD" opacity="1.000000" stroke="none" 
	d="
M179.395416,308.539307 
	C176.817337,303.852936 174.263763,299.553986 172.105865,295.064819 
	C169.764679,290.194366 171.400436,286.121735 176.172150,283.946228 
	C179.723892,282.326996 183.495026,284.281250 186.111053,288.269745 
	C191.361450,296.274689 196.785431,304.176636 202.430481,311.907379 
	C205.313522,315.855621 205.850937,320.287445 202.978531,323.194519 
	C199.533752,326.680878 194.975220,326.655609 191.135941,322.552856 
	C187.059830,318.197052 183.422928,313.430267 179.395416,308.539307 
z"/>
</svg>